<svg width="28" height="28" viewBox="0 0 28 28" fill="none" xmlns="http://www.w3.org/2000/svg">
<path d="M10.1827 18.3808C10.4451 18.5668 10.7586 18.6671 11.0803 18.668C11.4019 18.6688 11.7159 18.5701 11.9793 18.3855C12.2156 18.2175 12.4011 17.9877 12.5142 17.7211L13.2352 15.5225C13.4115 14.9926 13.7089 14.511 14.1039 14.1161C14.4988 13.7212 14.9803 13.4238 15.5102 13.2475L17.6283 12.5574C17.9323 12.4502 18.1955 12.2514 18.3817 11.9883C18.5678 11.7252 18.6678 11.4109 18.6678 11.0886C18.6678 10.7663 18.5678 10.4519 18.3817 10.1889C18.1955 9.92578 17.9323 9.72694 17.6283 9.61975L15.47 8.92383C14.9417 8.74718 14.4616 8.45043 14.0674 8.0569C13.6731 7.66337 13.3755 7.18379 13.1979 6.65583L12.5102 4.53892C12.4031 4.2349 12.2041 3.97172 11.9408 3.78583C11.6764 3.60305 11.3625 3.50515 11.041 3.50515C10.7196 3.50515 10.4057 3.60305 10.1412 3.78583C9.87321 3.97565 9.67176 4.24506 9.56549 4.55583L8.86958 6.69492C8.69293 7.20943 8.40188 7.67718 8.01833 8.06295C7.63479 8.44872 7.16873 8.74247 6.65524 8.92208L4.53949 9.60925C4.23393 9.71689 3.96954 9.91713 3.78313 10.1821C3.59673 10.4471 3.49758 10.7636 3.49951 11.0875C3.50143 11.4115 3.60433 11.7268 3.79388 11.9895C3.98342 12.2522 4.25017 12.4493 4.55699 12.5533L6.64941 13.2329C7.17962 13.4107 7.66125 13.7093 8.05627 14.1051C8.45129 14.5009 8.74889 14.9832 8.92558 15.5138L9.61391 17.6272C9.72066 17.9311 9.91958 18.1948 10.1827 18.3808ZM11.1772 17.143L11.1411 17.1903C11.1236 17.2012 11.1032 17.2068 11.0825 17.2061C11.0618 17.2055 11.0418 17.1988 11.025 17.1868C11.0131 17.1787 11.0028 17.1684 10.9947 17.1564L10.3122 15.0564C10.0665 14.3086 9.64848 13.629 9.09183 13.0725C8.53384 12.5155 7.85379 12.0961 7.10558 11.8475L5.02366 11.1743C5.00426 11.1668 4.98745 11.1539 4.97524 11.137C4.96321 11.12 4.95707 11.0995 4.95774 11.0787C4.95803 11.0578 4.96453 11.0375 4.97641 11.0203C4.9848 11.0088 4.99505 10.9987 5.00674 10.9906L7.11841 10.3052C7.85443 10.0502 8.52188 9.62926 9.06908 9.07492C9.60097 8.5333 10.005 7.87956 10.2515 7.16158L10.9445 5.026C10.9514 5.00633 10.9642 4.98933 10.9813 4.97739C10.9984 4.96546 11.0188 4.9592 11.0396 4.9595C11.0575 4.95943 11.075 4.96396 11.0907 4.97264C11.1063 4.98132 11.1194 4.99387 11.1288 5.00908L11.8125 7.10908C12.0613 7.85284 12.4792 8.52875 13.0334 9.08367C13.5907 9.64009 14.2697 10.0594 15.0167 10.3087L17.1167 10.99L17.1552 11.0011C17.1712 11.0095 17.1846 11.0222 17.1938 11.0378C17.2031 11.0533 17.2079 11.0711 17.2077 11.0892C17.2077 11.1102 17.2019 11.13 17.1902 11.1475C17.1819 11.1584 17.1723 11.1682 17.1617 11.1767L15.0558 11.8597C14.3096 12.1073 13.6315 12.5258 13.0756 13.0818C12.5197 13.6378 12.1013 14.316 11.8539 15.0623L11.1772 17.143ZM19.1771 23.7078C19.3688 23.8437 19.5978 23.9168 19.8327 23.9172L19.8357 23.919C20.0735 23.9188 20.3053 23.844 20.4983 23.705C20.6913 23.566 20.8358 23.3699 20.9113 23.1443L21.2432 22.1235C21.3114 21.9198 21.4258 21.7347 21.5775 21.5827C21.7292 21.4306 21.9141 21.3159 22.1177 21.2473L23.1618 20.9078C23.3272 20.8493 23.4768 20.7533 23.5988 20.6273C23.7208 20.5012 23.812 20.3486 23.8651 20.1814C23.9182 20.0143 23.9319 19.837 23.905 19.6637C23.8781 19.4903 23.8114 19.3256 23.7102 19.1823C23.566 18.9806 23.3603 18.8312 23.1239 18.7565L22.099 18.4246C21.8953 18.3565 21.7102 18.2421 21.5584 18.0902C21.4065 17.9383 21.292 17.7533 21.224 17.5496L20.8845 16.506C20.8062 16.2828 20.66 16.0897 20.4665 15.9536C20.273 15.8176 20.0417 15.7455 19.8052 15.7475C19.5687 15.7494 19.3386 15.8252 19.1473 15.9644C18.9561 16.1036 18.8131 16.299 18.7384 16.5235L18.4047 17.5484C18.3386 17.7491 18.2275 17.9319 18.0799 18.0831C17.9323 18.2342 17.7521 18.3496 17.5531 18.4205L16.5089 18.76C16.2858 18.8382 16.0928 18.9843 15.9568 19.1776C15.8208 19.371 15.7487 19.6021 15.7506 19.8385C15.7524 20.0749 15.8282 20.3048 15.9672 20.496C16.1062 20.6873 16.3015 20.8302 16.5258 20.9049L17.5478 21.2374C17.752 21.3055 17.9375 21.4204 18.0894 21.573C18.2414 21.7255 18.3555 21.9114 18.4228 22.1159L18.7623 23.1589C18.8405 23.3806 18.9857 23.5725 19.1771 23.7078ZM18.0017 19.8567L17.9328 19.8339L18.0145 19.8053C18.4294 19.6621 18.8056 19.4248 19.1135 19.112C19.4215 18.7992 19.6529 18.4194 19.7896 18.0023L19.8129 17.9317L19.8362 18.0063C19.9757 18.4264 20.2114 18.8081 20.5246 19.121C20.8377 19.4338 21.2197 19.6692 21.6399 19.8083L21.7309 19.8374L21.6603 19.8608C21.2396 20.0001 20.8574 20.236 20.5441 20.5495C20.2308 20.863 19.9952 21.2454 19.8561 21.6662L19.8327 21.7368L19.8094 21.665C19.6702 21.2432 19.4342 20.86 19.1201 20.5459C18.8061 20.2319 18.4228 19.9958 18.0011 19.8567H18.0017Z" fill="black"/>
</svg>
