<svg width="25" height="25" viewBox="0 0 25 25" fill="none" xmlns="http://www.w3.org/2000/svg">
<path d="M2.08331 12.5C2.08331 7.58962 2.08331 5.13442 3.60831 3.60837C5.1354 2.08337 7.58956 2.08337 12.5 2.08337C17.4104 2.08337 19.8656 2.08337 21.3906 3.60837C22.9166 5.13546 22.9166 7.58962 22.9166 12.5C22.9166 17.4105 22.9166 19.8657 21.3906 21.3907C19.8666 22.9167 17.4104 22.9167 12.5 22.9167C7.58956 22.9167 5.13435 22.9167 3.60831 21.3907C2.08331 19.8667 2.08331 17.4105 2.08331 12.5Z" stroke="currentColor" stroke-width="1.5"/>
<path d="M2.08331 13.5417H5.37498C6.31769 13.5417 6.78956 13.5417 7.20415 13.7324C7.61873 13.923 7.92498 14.2813 8.53852 14.997L9.16977 15.7324C9.78331 16.448 10.0896 16.8063 10.5041 16.997C10.9187 17.1876 11.3896 17.1876 12.3333 17.1876H12.6666C13.6094 17.1876 14.0812 17.1876 14.4958 16.997C14.9104 16.8063 15.2166 16.448 15.8302 15.7324L16.4614 14.997C17.075 14.2813 17.3812 13.923 17.7958 13.7324C18.2104 13.5417 18.6812 13.5417 19.625 13.5417H22.9166" stroke="currentColor" stroke-width="1.5" stroke-linecap="round"/>
</svg>
