<svg width="25" height="25" viewBox="0 0 25 25" fill="none" xmlns="http://www.w3.org/2000/svg">
<g clip-path="url(#clip0_28_314)">
<path d="M24.7719 0.228176C24.8801 0.336507 24.954 0.474229 24.9846 0.624234C25.0151 0.774239 25.0009 0.929916 24.9438 1.07193L15.8516 23.8016C15.7715 24.0018 15.6377 24.176 15.4649 24.305C15.2922 24.434 15.0872 24.5129 14.8725 24.5329C14.6578 24.553 14.4418 24.5134 14.2481 24.4185C14.0545 24.3237 13.8908 24.1773 13.775 23.9954L8.80941 16.1907L1.00472 11.2251C0.822402 11.1094 0.67558 10.9456 0.580452 10.7518C0.485325 10.558 0.44559 10.3417 0.465632 10.1267C0.485674 9.91173 0.564715 9.70647 0.694032 9.53358C0.823349 9.36069 0.997915 9.22688 1.19847 9.14693L23.9282 0.0578634C24.0702 0.000695062 24.2258 -0.013492 24.3758 0.0170645C24.5259 0.047621 24.6636 0.121575 24.7719 0.229738V0.228176ZM10.3688 15.7344L14.6828 22.5126L22.0782 4.02505L10.3688 15.7344ZM20.9735 2.92036L2.48597 10.3157L9.26565 14.6282L20.9735 2.92036Z" fill="currentColor"/>
</g>
<defs>
<clipPath id="clip0_28_314">
<rect width="25" height="25" fill="white"/>
</clipPath>
</defs>
</svg>
